<svg xmlns="http://www.w3.org/2000/svg" version="1.1" xmlns:xlink="http://www.w3.org/1999/xlink" xmlns:svgjs="http://svgjs.dev/svgjs" width="100" height="50" viewBox="0 0 2000 1040"><g transform="matrix(1,0,0,1,0.08498433385125281,0.001356329644067955)"><svg viewBox="0 0 346 180" data-background-color="#ffffff" preserveAspectRatio="xMidYMid meet" height="1040" width="2000" xmlns="http://www.w3.org/2000/svg" xmlns:xlink="http://www.w3.org/1999/xlink"><g id="tight-bounds" transform="matrix(1,0,0,1,-0.01470228975625787,-0.00023474936148204506)"><svg viewBox="0 0 346.02893818153495 180" height="180" width="346.02893818153495"><g><svg viewBox="0 0 356.12052 185.24951680882464" height="180" width="346.02893818153495"><g><svg viewBox="0 0 356.12052 185.24951680882464" height="185.24951680882464" width="356.12052"><g><path d="M0 185.25v-185.25h356.121v185.25z" fill="#bb84e8" stroke="transparent" stroke-width="0" rx="0%" data-fill-palette-color="tertiary"></path><path d="M3.283 181.966v-178.683h349.554v178.683z" fill="#ffffff" stroke="transparent" stroke-width="0" rx="0%" data-fill-palette-color="quaternary"></path><path d="M9.85 175.4v-165.55h336.421v165.55z" fill="#bb84e8" stroke="transparent" stroke-width="0" data-fill-palette-color="tertiary"></path></g><g transform="matrix(1,0,0,1,19.69974,19.69974)" id="textblocktransform"><svg viewBox="0 0 316.72104 145.85003680882465" height="145.85003680882465" width="316.72104" id="textblock"><g><svg viewBox="0 0 316.72104 98.90467880085652" height="98.90467880085652" width="316.72104"><g transform="matrix(1,0,0,1,0,0)"><svg width="316.72104" viewBox="1.9000000953674316 -43.349998474121094 140.0900115966797 43.75" height="98.90467880085652" data-palette-color="#ffffff"><path d="M1.9 0L1.9-42.95 15.1-42.95Q18.25-42.95 19.98-41.53 21.7-40.1 22.3-37.52 22.9-34.95 22.9-30.95L22.9-30.95Q22.9-27.3 21.95-25.25 21-23.2 18.65-22.4L18.65-22.4Q20.6-22 21.48-20.45 22.35-18.9 22.35-16.25L22.35-16.25 22.25 0 13.85 0 13.85-16.8Q13.85-18.6 13.15-19.1 12.45-19.6 10.6-19.6L10.6-19.6 10.6 0 1.9 0ZM10.65-27.05L12.7-27.05Q14.5-27.05 14.5-30.95L14.5-30.95Q14.5-32.65 14.35-33.5 14.2-34.35 13.8-34.68 13.4-35 12.65-35L12.65-35 10.65-35 10.65-27.05ZM35.95 0.4Q30.1 0.4 27.5-2.5 24.9-5.4 24.9-11.85L24.9-11.85 24.9-16.05 33.35-16.05 33.35-10.7Q33.35-7.5 35.4-7.5L35.4-7.5Q36.55-7.5 37-8.18 37.45-8.85 37.45-10.45L37.45-10.45Q37.45-12.55 36.95-13.93 36.45-15.3 35.67-16.23 34.9-17.15 32.9-19.1L32.9-19.1 29.2-22.8Q24.9-27 24.9-32.1L24.9-32.1Q24.9-37.6 27.42-40.48 29.95-43.35 34.8-43.35L34.8-43.35Q40.6-43.35 43.15-40.28 45.7-37.2 45.7-30.65L45.7-30.65 36.95-30.65 36.9-33.6Q36.9-34.45 36.42-34.95 35.95-35.45 35.1-35.45L35.1-35.45Q34.1-35.45 33.6-34.9 33.1-34.35 33.1-33.4L33.1-33.4Q33.1-31.3 35.5-29.05L35.5-29.05 40.5-24.25Q42.25-22.55 43.4-21.03 44.55-19.5 45.25-17.43 45.95-15.35 45.95-12.5L45.95-12.5Q45.95-6.15 43.62-2.88 41.3 0.4 35.95 0.4L35.95 0.4ZM59 0.4Q53.15 0.4 50.55-2.5 47.95-5.4 47.95-11.85L47.95-11.85 47.95-16.05 56.4-16.05 56.4-10.7Q56.4-7.5 58.45-7.5L58.45-7.5Q59.6-7.5 60.05-8.18 60.5-8.85 60.5-10.45L60.5-10.45Q60.5-12.55 60-13.93 59.5-15.3 58.72-16.23 57.95-17.15 55.95-19.1L55.95-19.1 52.25-22.8Q47.95-27 47.95-32.1L47.95-32.1Q47.95-37.6 50.47-40.48 53-43.35 57.85-43.35L57.85-43.35Q63.65-43.35 66.2-40.28 68.75-37.2 68.75-30.65L68.75-30.65 60-30.65 59.95-33.6Q59.95-34.45 59.47-34.95 59-35.45 58.15-35.45L58.15-35.45Q57.15-35.45 56.65-34.9 56.15-34.35 56.15-33.4L56.15-33.4Q56.15-31.3 58.55-29.05L58.55-29.05 63.55-24.25Q65.3-22.55 66.45-21.03 67.59-19.5 68.3-17.43 69-15.35 69-12.5L69-12.5Q69-6.15 66.67-2.88 64.34 0.4 59 0.4L59 0.4ZM80.39 0L71.84 0 71.84-42.95 80.39-42.95 80.39-27.6 84.44-27.6 84.44-42.95 92.99-42.95 92.99 0 84.44 0 84.44-19.5 80.39-19.5 80.39 0ZM107.04 0.4Q101.84 0.4 99.14-2.78 96.44-5.95 96.44-11.7L96.44-11.7 96.44-32.15Q96.44-37.7 99.14-40.53 101.84-43.35 107.04-43.35L107.04-43.35Q112.24-43.35 114.94-40.53 117.64-37.7 117.64-32.15L117.64-32.15 117.64-11.7Q117.64-5.9 114.94-2.75 112.24 0.4 107.04 0.4L107.04 0.4ZM107.04-7.5Q108.19-7.5 108.59-8.5 108.99-9.5 108.99-11.3L108.99-11.3 108.99-32.3Q108.99-33.7 108.62-34.58 108.24-35.45 107.09-35.45L107.09-35.45Q104.94-35.45 104.94-32.2L104.94-32.2 104.94-11.25Q104.94-9.4 105.39-8.45 105.84-7.5 107.04-7.5L107.04-7.5ZM121.09 0L121.09-42.95 132.44-42.95Q137.59-42.95 139.79-39.63 141.99-36.3 141.99-29.9L141.99-29.9Q141.99-23.5 140.04-20.25 138.09-17 133.04-17L133.04-17 129.54-17 129.54 0 121.09 0ZM129.54-24.75L130.04-24.75Q131.59-24.75 132.31-25.33 133.04-25.9 133.26-26.98 133.49-28.05 133.49-30.05L133.49-30.05Q133.49-32.75 132.89-33.95 132.29-35.15 130.49-35.15L130.49-35.15 129.54-35.15 129.54-24.75Z" opacity="1" transform="matrix(1,0,0,1,0,0)" fill="#ffffff" class="wordmark-text-0" data-fill-palette-color="quaternary" id="text-0"></path></svg></g></svg></g><g transform="matrix(1,0,0,1,0,105.47125880085652)"><svg viewBox="0 0 316.72104 40.37877800796813" height="40.37877800796813" width="316.72104"><g transform="matrix(1,0,0,1,0,0)"><svg width="316.72104" viewBox="0.5 -35 363.9100036621094 46.400001525878906" height="40.37877800796813" data-palette-color="#ffffff"><path d="M4.95-19.8L0.5-19.8 9.45-28.75 9.45-24 16.2-24 16.2-19.8 9.45-19.8 9.45-9.5Q9.45-7.75 10.03-6.6 10.6-5.45 11.7-4.98 12.8-4.5 13.78-4.35 14.75-4.2 16.2-4.2L16.2-4.2 16.2 0Q10.45 0 7.7-2.2 4.95-4.4 4.95-9.5L4.95-9.5 4.95-19.8ZM20.95-35L25.35-35 25.35-24 29.6-24Q35.15-24 37.55-22.35L37.55-22.35Q39.7-20.9 40.27-18.88 40.85-16.85 40.85-13.55L40.85-13.55 40.85 0 36.45 0 36.45-13.5Q36.45-14.4 36.4-15.03 36.35-15.65 36.05-16.63 35.75-17.6 35.2-18.23 34.65-18.85 33.6-19.33 32.55-19.8 31.05-19.8L31.05-19.8 25.35-19.8 25.35 0 20.95 0 20.95-35ZM58.59-24.5L58.59-24.5Q67.09-24.15 67.09-17.45L67.09-17.45Q67.09-9.1 56.14-9.1L56.14-9.1 54.09-9.1 54.09-12.95 56.49-12.95Q59.84-12.95 61.14-13.98 62.45-15 62.45-17.4L62.45-17.4Q62.45-18.95 61.3-19.73 60.14-20.5 58.34-20.5L58.34-20.5Q54.8-20.5 52.77-18 50.74-15.5 50.74-12L50.74-12Q50.74-8.3 52.92-6 55.09-3.7 58.59-3.7L58.59-3.7Q61.75-3.7 63.75-5.25L63.75-5.25 66.75-2.3Q63.3 0.5 58.59 0.5L58.59 0.5Q52.89 0.5 49.49-2.85 46.09-6.2 46.09-11.5L46.09-11.5Q46.09-17.4 49.45-21.05 52.8-24.7 58.59-24.5ZM86.49-20.85L86.49-20.85Q89.99-24.5 95.24-24.5L95.24-24.5Q97.79-24.5 100.02-23.53 102.24-22.55 103.92-20.85 105.59-19.15 106.54-16.88 107.49-14.6 107.49-12L107.49-12Q107.49-9.4 106.57-7.13 105.64-4.85 103.99-3.15 102.34-1.45 100.09-0.48 97.84 0.5 95.24 0.5L95.24 0.5Q92.59 0.5 90.37-0.48 88.14-1.45 86.49-3.15 84.84-4.85 83.92-7.13 82.99-9.4 82.99-12L82.99-12Q82.99-17.3 86.49-20.85ZM95.24-20.3L95.24-20.3Q91.74-20.3 89.62-18 87.49-15.7 87.49-12 87.49-8.3 89.62-6 91.74-3.7 95.24-3.7L95.24-3.7Q98.79-3.7 100.89-6.03 102.99-8.35 102.99-12 102.99-15.65 100.89-17.98 98.79-20.3 95.24-20.3ZM116.39 0L111.99 0 111.99-13.65Q111.99-19.4 114.14-21.6L114.14-21.6Q115.19-22.7 116.69-23.25 118.19-23.8 119.31-23.9 120.44-24 122.39-24L122.39-24 126.79-24 126.79-19.8 121.49-19.8Q120.49-19.8 119.94-19.75 119.39-19.7 118.64-19.4 117.89-19.1 117.34-18.45L117.34-18.45Q116.39-17.25 116.39-13.65L116.39-13.65 116.39 0ZM136.54-24L136.54 0 132.14 0 132.14-19.8 128.04-19.8 130.04-24 136.54-24ZM131.94-29L131.94-29Q131.29-29.85 131.29-30.85 131.29-31.85 131.94-32.68 132.59-33.5 133.94-33.5 135.29-33.5 135.94-32.68 136.59-31.85 136.59-30.85 136.59-29.85 135.94-29.03 135.29-28.2 133.94-28.2 132.59-28.2 131.94-29ZM154.38 0L154.38 0Q149.48 0 145.98-3.3 142.48-6.6 142.48-11.75L142.48-11.75Q142.48-16.95 146.01-20.48 149.53-24 154.73-24L154.73-24 166.48-24 166.48-0.7Q166.48 1.55 165.91 3.35 165.33 5.15 164.28 6.4 163.23 7.65 162.38 8.35 161.53 9.05 160.33 9.8L160.33 9.8Q157.23 11.4 152.78 11.4L152.78 11.4 147.18 11.4 147.18 7.2 152.33 7.2Q156.73 7.2 158.58 6.1L158.58 6.1Q161.98 4.2 161.98-0.2L161.98-0.2 161.98-19.8 154.73-19.8Q151.18-19.8 149.08-17.6 146.98-15.4 146.98-11.75L146.98-11.75Q146.98-8.25 149.16-6.23 151.33-4.2 154.38-4.2L154.38-4.2Q157.68-4.2 160.18-6L160.18-6 160.18-1.5Q157.48 0 154.38 0ZM179.23-24L179.23 0 174.83 0 174.83-19.8 170.73-19.8 172.73-24 179.23-24ZM174.63-29L174.63-29Q173.98-29.85 173.98-30.85 173.98-31.85 174.63-32.68 175.28-33.5 176.63-33.5 177.98-33.5 178.63-32.68 179.28-31.85 179.28-30.85 179.28-29.85 178.63-29.03 177.98-28.2 176.63-28.2 175.28-28.2 174.63-29ZM186.18 0L186.18-24 194.83-24Q200.38-24 202.78-22.35L202.78-22.35Q204.93-20.9 205.5-18.88 206.08-16.85 206.08-13.55L206.08-13.55 206.08 0 201.68 0 201.68-13.5Q201.68-14.4 201.63-15.03 201.58-15.65 201.28-16.63 200.98-17.6 200.43-18.23 199.88-18.85 198.83-19.33 197.78-19.8 196.28-19.8L196.28-19.8 190.58-19.8 190.58 0 186.18 0ZM225.43-14.1L225.43-14.1 225.43-9.6Q223.53-11.05 220.78-11.05L220.78-11.05Q218.43-11.05 217.13-10.13 215.83-9.2 215.83-7.5L215.83-7.5Q215.83-4.2 220.73-4.2L220.73-4.2 227.33-4.2 227.33-13.75Q227.33-19.8 221.43-19.8L221.43-19.8 213.43-19.8 213.43-24 221.68-24Q226.53-24 229.13-21.6 231.73-19.2 231.73-14.7L231.73-14.7 231.73 0 220.58 0Q216.33 0 213.83-1.9 211.33-3.8 211.33-7.45 211.33-11.1 213.98-13 216.63-14.9 220.63-14.9L220.63-14.9Q222.88-14.9 225.43-14.1ZM237.22-9.5L237.22-9.5 237.22-35 241.72-35 241.72-9.5Q241.72-7.7 242.15-6.58 242.57-5.45 243.47-4.98 244.37-4.5 245.22-4.35 246.07-4.2 247.47-4.2L247.47-4.2 247.47 0Q241.87 0 239.55-2.15 237.22-4.3 237.22-9.5ZM270.17-24L279.02-24 279.02-19.8 270.17-19.8Q268.72-19.8 267.67-19.25 266.62-18.7 266.62-17.7L266.62-17.7Q266.62-17.1 266.87-16.63 267.12-16.15 267.44-15.85 267.77-15.55 268.44-15.23 269.12-14.9 269.49-14.78 269.87-14.65 272.67-13.75 275.47-12.85 276.82-12.25 278.17-11.65 278.89-10.63 279.62-9.6 279.82-8.63 280.02-7.65 280.02-6.7L280.02-6.7Q280.02 0 270.82 0L270.82 0 262.17 0 262.17-4.2 270.82-4.2Q275.52-4.2 275.52-6.7L275.52-6.7Q275.52-7.9 274.14-8.7 272.77-9.5 270.79-10.05 268.82-10.6 266.84-11.33 264.87-12.05 263.49-13.68 262.12-15.3 262.12-17.7L262.12-17.7Q262.12-20.75 264.47-22.38 266.82-24 270.17-24L270.17-24ZM285.01-35L289.41-35 289.41-24 293.66-24Q299.21-24 301.62-22.35L301.62-22.35Q303.76-20.9 304.34-18.88 304.91-16.85 304.91-13.55L304.91-13.55 304.91 0 300.51 0 300.51-13.5Q300.51-14.4 300.46-15.03 300.41-15.65 300.12-16.63 299.81-17.6 299.26-18.23 298.71-18.85 297.66-19.33 296.62-19.8 295.12-19.8L295.12-19.8 289.41-19.8 289.41 0 285.01 0 285.01-35ZM313.66-20.85L313.66-20.85Q317.16-24.5 322.41-24.5L322.41-24.5Q324.96-24.5 327.19-23.53 329.41-22.55 331.09-20.85 332.76-19.15 333.71-16.88 334.66-14.6 334.66-12L334.66-12Q334.66-9.4 333.74-7.13 332.81-4.85 331.16-3.15 329.51-1.45 327.26-0.48 325.01 0.5 322.41 0.5L322.41 0.5Q319.76 0.5 317.54-0.48 315.31-1.45 313.66-3.15 312.01-4.85 311.09-7.13 310.16-9.4 310.16-12L310.16-12Q310.16-17.3 313.66-20.85ZM322.41-20.3L322.41-20.3Q318.91-20.3 316.79-18 314.66-15.7 314.66-12 314.66-8.3 316.79-6 318.91-3.7 322.41-3.7L322.41-3.7Q325.96-3.7 328.06-6.03 330.16-8.35 330.16-12 330.16-15.65 328.06-17.98 325.96-20.3 322.41-20.3ZM344.41 11.4L339.91 11.4 339.91-12Q339.91-14.6 340.86-16.9 341.81-19.2 343.46-20.88 345.11-22.55 347.36-23.53 349.61-24.5 352.16-24.5L352.16-24.5Q354.71-24.5 356.93-23.53 359.16-22.55 360.83-20.85 362.51-19.15 363.46-16.88 364.41-14.6 364.41-12L364.41-12Q364.41-9.4 363.48-7.13 362.56-4.85 360.91-3.15 359.26-1.45 357.01-0.48 354.76 0.5 352.16 0.5L352.16 0.5Q348.96 0.5 346.21-1L346.21-1 346.21-5.5Q348.66-3.7 352.01-3.7L352.01-3.7Q353.81-3.7 355.28-4.33 356.76-4.95 357.78-6.05 358.81-7.15 359.36-8.68 359.91-10.2 359.91-12L359.91-12Q359.91-13.8 359.36-15.33 358.81-16.85 357.81-17.95 356.81-19.05 355.38-19.68 353.96-20.3 352.16-20.3L352.16-20.3Q350.41-20.3 348.98-19.7 347.56-19.1 346.53-18 345.51-16.9 344.96-15.38 344.41-13.85 344.41-12L344.41-12 344.41 11.4Z" opacity="1" transform="matrix(1,0,0,1,0,0)" fill="#ffffff" class="slogan-text-1" data-fill-palette-color="quaternary" id="text-1"></path></svg></g></svg></g></svg></g></svg></g><g></g></svg></g><defs></defs></svg><rect width="346.02893818153495" height="180" fill="none" stroke="none" visibility="hidden"></rect></g></svg></g></svg>